<mxfile host="65bd71144e">
    <diagram id="FHjEZPHbwFpAHAHqGLr1" name="Page-1">
        <mxGraphModel dx="1097" dy="827" grid="1" gridSize="10" guides="1" tooltips="1" connect="1" arrows="1" fold="1" page="1" pageScale="1" pageWidth="827" pageHeight="1169" math="0" shadow="0">
            <root>
                <mxCell id="0"/>
                <mxCell id="1" parent="0"/>
                <mxCell id="20" value="" style="edgeStyle=none;html=1;" edge="1" parent="1" source="2" target="7">
                    <mxGeometry relative="1" as="geometry"/>
                </mxCell>
                <mxCell id="2" value="&lt;p style=&quot;caret-color: rgb(0, 0, 0); color: rgb(0, 0, 0); text-align: start;&quot; data-pm-slice=&quot;1 1 [&amp;quot;list&amp;quot;,{&amp;quot;spread&amp;quot;:false,&amp;quot;start&amp;quot;:6394,&amp;quot;end&amp;quot;:6480},&amp;quot;regular_list_item&amp;quot;,{&amp;quot;start&amp;quot;:6394,&amp;quot;end&amp;quot;:6480}]&quot;&gt;&lt;code&gt;&lt;font style=&quot;font-size: 18px;&quot;&gt;Produit&lt;/font&gt;&lt;/code&gt;&lt;/p&gt;" style="rounded=1;whiteSpace=wrap;html=1;" vertex="1" parent="1">
                    <mxGeometry x="310" y="155" width="120" height="60" as="geometry"/>
                </mxCell>
                <mxCell id="3" value="&lt;p style=&quot;caret-color: rgb(0, 0, 0); color: rgb(0, 0, 0); text-align: start;&quot; data-pm-slice=&quot;1 1 [&amp;quot;list&amp;quot;,{&amp;quot;spread&amp;quot;:false,&amp;quot;start&amp;quot;:6394,&amp;quot;end&amp;quot;:6480},&amp;quot;regular_list_item&amp;quot;,{&amp;quot;start&amp;quot;:6394,&amp;quot;end&amp;quot;:6480}]&quot;&gt;&lt;code&gt;&lt;font style=&quot;font-size: 18px;&quot;&gt;Utilisateur&lt;/font&gt;&lt;/code&gt;&lt;/p&gt;" style="rounded=1;whiteSpace=wrap;html=1;" vertex="1" parent="1">
                    <mxGeometry x="110" y="40" width="120" height="60" as="geometry"/>
                </mxCell>
                <mxCell id="16" value="" style="edgeStyle=none;html=1;" edge="1" parent="1" source="5" target="2">
                    <mxGeometry relative="1" as="geometry"/>
                </mxCell>
                <mxCell id="5" value="&lt;p style=&quot;caret-color: rgb(0, 0, 0); color: rgb(0, 0, 0); text-align: start;&quot; data-pm-slice=&quot;1 1 [&amp;quot;list&amp;quot;,{&amp;quot;spread&amp;quot;:false,&amp;quot;start&amp;quot;:6394,&amp;quot;end&amp;quot;:6480},&amp;quot;regular_list_item&amp;quot;,{&amp;quot;start&amp;quot;:6394,&amp;quot;end&amp;quot;:6480}]&quot;&gt;&lt;code&gt;&lt;font style=&quot;font-size: 18px;&quot;&gt;Categorie&lt;/font&gt;&lt;/code&gt;&lt;/p&gt;" style="rounded=1;whiteSpace=wrap;html=1;" vertex="1" parent="1">
                    <mxGeometry x="310" y="40" width="120" height="60" as="geometry"/>
                </mxCell>
                <mxCell id="7" value="&lt;p style=&quot;caret-color: rgb(0, 0, 0); color: rgb(0, 0, 0); text-align: start;&quot; data-pm-slice=&quot;1 1 [&amp;quot;list&amp;quot;,{&amp;quot;spread&amp;quot;:false,&amp;quot;start&amp;quot;:6394,&amp;quot;end&amp;quot;:6480},&amp;quot;regular_list_item&amp;quot;,{&amp;quot;start&amp;quot;:6394,&amp;quot;end&amp;quot;:6480}]&quot;&gt;&lt;code&gt;&lt;font style=&quot;font-size: 18px;&quot;&gt;Commande&lt;/font&gt;&lt;/code&gt;&lt;/p&gt;" style="rounded=1;whiteSpace=wrap;html=1;" vertex="1" parent="1">
                    <mxGeometry x="110" y="150" width="130" height="65" as="geometry"/>
                </mxCell>
                <mxCell id="8" value="&lt;p style=&quot;caret-color: rgb(0, 0, 0); color: rgb(0, 0, 0); text-align: start;&quot; data-pm-slice=&quot;1 1 [&amp;quot;list&amp;quot;,{&amp;quot;spread&amp;quot;:false,&amp;quot;start&amp;quot;:6394,&amp;quot;end&amp;quot;:6480},&amp;quot;regular_list_item&amp;quot;,{&amp;quot;start&amp;quot;:6394,&amp;quot;end&amp;quot;:6480}]&quot;&gt;&lt;code&gt;&lt;font style=&quot;font-size: 18px;&quot;&gt;FiltreValeur&lt;/font&gt;&lt;/code&gt;&lt;/p&gt;" style="rounded=1;whiteSpace=wrap;html=1;" vertex="1" parent="1">
                    <mxGeometry x="280" y="270" width="120" height="60" as="geometry"/>
                </mxCell>
                <mxCell id="14" value="" style="endArrow=classic;html=1;entryX=0;entryY=0.5;entryDx=0;entryDy=0;exitX=1;exitY=0.5;exitDx=0;exitDy=0;" edge="1" parent="1" source="3" target="5">
                    <mxGeometry width="50" height="50" relative="1" as="geometry">
                        <mxPoint x="200" y="140" as="sourcePoint"/>
                        <mxPoint x="250" y="90" as="targetPoint"/>
                    </mxGeometry>
                </mxCell>
                <mxCell id="19" value="" style="endArrow=classic;startArrow=classic;html=1;" edge="1" parent="1">
                    <mxGeometry width="50" height="50" relative="1" as="geometry">
                        <mxPoint x="340" y="265" as="sourcePoint"/>
                        <mxPoint x="390" y="215" as="targetPoint"/>
                    </mxGeometry>
                </mxCell>
            </root>
        </mxGraphModel>
    </diagram>
</mxfile>